# xmcd
#
# Track frame offsets:
#	150
#	12595
#	22405
#	35270
#	46085
#	65472
#	78055
#	90797
#	103787
#	123867
#	135802
#	148447
#	161367
#	175347
#	190182
#	203045
#	216520
#	231720
#	245862
#	262085
#	281357
#	301717
#
# Disc length: 4273 seconds
#
# Revision: 2
# Processed by: cddbd v1.4PL0 Copyright (c) Steve Scherf et al.
# Submitted via: audiograbber 1.81.00
#
DISCID=3710af16
DTITLE=James Brown - ¡Feel Good! - The Best Of
DYEAR=2000
DGENRE=
TTITLE0=Please, Please, Please
TTITLE1=I'll Go Crazy
TTITLE2=Think
TTITLE3=Out Of Sight
TTITLE4=Papa's Got a Brand New Bag
TTITLE5=I Got You (I Feel Good)
TTITLE6=It's a Man's Man's World
TTITLE7=Cold Sweat
TTITLE8=There Was a Time
TTITLE9=I Got The Feeling
TTITLE10=Say It Loud (I'm Black And I'm Proud)
TTITLE11=Give It Up Or Turnit a Loose
TTITLE12=I Don't Want Nobody To Give Me Nothing
TTITLE13=Mother Popcorn
TTITLE14=(Get Up I Feel Like Being a) Sex Machine
TTITLE15=(Call Me) Superbad
TTITLE16=Soul Power
TTITLE17=Hot Pants
TTITLE18=Get On The Good Foot
TTITLE19=My Thang
TTITLE20=Papa Don't Take No Mess
TTITLE21=Get Up Offa That Ring
EXTD=
EXTT0=
EXTT1=
EXTT2=
EXTT3=
EXTT4=
EXTT5=
EXTT6=
EXTT7=
EXTT8=
EXTT9=
EXTT10=
EXTT11=
EXTT12=
EXTT13=
EXTT14=
EXTT15=
EXTT16=
EXTT17=
EXTT18=
EXTT19=
EXTT20=
EXTT21=
PLAYORDER=
